<svg viewBox="0 0 1440 1024" fill="none" xmlns="http://www.w3.org/2000/svg">
<path fill-rule="evenodd" clip-rule="evenodd" d="M1473.22 -182.63C1506.69 -194.121 1541.52 -169.199 1541.44 -133.806L1541.44 -133.17L1618.24 -134.264C1652.6 -134.753 1677.2 -101.238 1666.43 -68.6051L1645.15 -4.09297C1643.42 1.16318 1640.82 6.09497 1637.47 10.5012L1502.24 188.405C1488 207.137 1462.63 213.407 1441.3 203.462L1425.2 195.95C1420.42 196.756 1415.47 196.896 1410.46 196.293L1214.41 172.663C1181.24 168.664 1160.6 134.618 1172.39 103.354L1243.03 -83.8881C1248.45 -98.2443 1259.99 -109.438 1274.5 -114.419L1473.22 -182.63ZM1538.44 -133.812L1538.44 -133.127L1408.16 -131.272C1393.26 -131.06 1379.24 -124.217 1369.9 -112.607L1244.51 43.358C1224.18 68.6419 1232.94 106.291 1262.34 120.003L1420.04 193.547C1417.01 193.759 1413.93 193.689 1410.82 193.314L1214.77 169.684C1183.53 165.918 1164.09 133.856 1175.2 104.413L1245.84 -82.8291C1250.94 -96.3491 1261.81 -106.89 1275.47 -111.582L1474.19 -179.793C1505.72 -190.614 1538.51 -167.144 1538.44 -133.812Z" fill="#6A66A3"/>
<path fill-rule="evenodd" clip-rule="evenodd" d="M704.593 -4.09297L0 -8V1119L446 1088.61L501.598 1132.78C515.578 1143.88 534.851 1147 552.147 1140.97L684.791 1094.65L744.289 1107.38C768.802 1112.63 793.059 1099.65 801.38 1076.83L810.948 1050.6L864.405 1031.93C889.308 1023.23 903.397 998.145 896.966 973.95L861.391 840.115C856.855 823.051 842.873 809.769 824.863 805.413L727.589 781.891C727.589 781.891 692.757 748.467 667.62 685.907C642.483 623.348 632.723 460.699 646.831 299.907C657.177 158.04 674.293 99.6477 694.981 29.0669C698.107 18.4019 701.315 7.45862 704.593 -4.09297ZM503.596 1130.53L450.383 1088.26L599.568 1076.4L679.294 1093.47L551.111 1138.23C534.854 1143.91 516.737 1140.97 503.596 1130.53ZM863.37 1029.2L812.242 1047.05L848.989 946.282C855.412 928.669 850.947 908.732 837.477 894.882L731.428 785.838L824.066 808.24C840.996 812.334 854.138 824.819 858.402 840.859L893.977 974.694C900.023 997.438 886.778 1021.02 863.37 1029.2Z" fill="#6A66A3"/>
</svg>
