<svg width="1920" height="1024" viewBox="0 0 1920 1024" fill="none" xmlns="http://www.w3.org/2000/svg">
<path d="M1998.27 172.904L2133.5 -5H1766.95L1740.53 27.8568C1720.2 53.1407 1728.97 90.7894 1758.37 104.501L1916.07 178.045C1913.04 178.258 1909.95 178.188 1906.85 177.813L1710.8 154.183C1679.56 150.417 1660.12 118.355 1671.23 88.9114L1705.89 -2.96281H1702.68L1668.42 87.8524C1656.62 119.117 1677.27 153.163 1710.44 157.161L1906.49 180.792C1911.49 181.395 1916.45 181.255 1921.22 180.449L1937.33 187.961C1958.65 197.906 1984.03 191.636 1998.27 172.904Z" fill="#6A66A3"/>
<path d="M896.966 958.448C903.397 982.644 889.308 1007.73 864.405 1016.43L843 1023.9H834.133L863.37 1013.69C886.778 1005.52 900.023 981.937 893.977 959.193L858.402 825.358C854.138 809.318 840.996 796.832 824.066 792.738L731.428 770.337L837.477 879.381C850.947 893.231 855.412 913.168 848.989 930.781L815.029 1023.9H0V-2.96277H699.812C698.185 2.63711 696.577 8.12206 694.99 13.5353L694.981 13.5657C674.293 84.1465 657.177 142.539 646.831 284.406C632.723 445.197 642.483 607.846 667.62 670.406C692.757 732.965 727.589 766.39 727.589 766.39L824.863 789.912C842.873 794.267 856.855 807.55 861.391 824.613L896.966 958.448Z" fill="#6A66A3"/>
</svg>
