<svg width="130" height="97" viewBox="0 0 130 97" fill="none" xmlns="http://www.w3.org/2000/svg">
<path d="M13.9609 70.5312V83H4.70312V48.7344H15.9297C25.2422 48.7344 29.8984 52.1094 29.8984 58.8594C29.8984 62.8281 27.9609 65.8984 24.0859 68.0703L34.0703 83H23.5703L16.3047 70.5312H13.9609ZM13.9609 63.5703H15.6953C18.9297 63.5703 20.5469 62.1406 20.5469 59.2812C20.5469 56.9219 18.9609 55.7422 15.7891 55.7422H13.9609V63.5703ZM57.5312 83H37.1875V48.7344H57.5312V56.1641H46.4453V61.5547H56.7109V68.9844H46.4453V75.4531H57.5312V83ZM96.1562 83H84.0156L71.5 58.8594H71.2891C71.5859 62.6562 71.7344 65.5547 71.7344 67.5547V83H63.5312V48.7344H75.625L88.0938 72.5469H88.2344C88.0156 69.0938 87.9062 66.3203 87.9062 64.2266V48.7344H96.1562V83ZM118.68 83H109.422V56.3047H101.055V48.7344H127.023V56.3047H118.68V83Z" fill="white"/>
<path d="M19.8438 43H3.92578V14.4453H19.8438V17.3945H7.24609V26.5938H19.082V29.5234H7.24609V40.0312H19.8438V43ZM23.9062 33.7617V30.793H33.4961V33.7617H23.9062ZM48.5547 21.2422C51.3672 21.2422 53.5482 22.2057 55.0977 24.1328C56.6602 26.0469 57.4414 28.7617 57.4414 32.2773C57.4414 35.793 56.6536 38.5273 55.0781 40.4805C53.5156 42.4206 51.3411 43.3906 48.5547 43.3906C47.1615 43.3906 45.8854 43.1367 44.7266 42.6289C43.5807 42.1081 42.6172 41.3138 41.8359 40.2461H41.6016L40.918 43H38.5938V12.6094H41.8359V19.9922C41.8359 21.6458 41.7839 23.1302 41.6797 24.4453H41.8359C43.3464 22.3099 45.5859 21.2422 48.5547 21.2422ZM48.0859 23.957C45.8724 23.957 44.2773 24.5951 43.3008 25.8711C42.3242 27.1341 41.8359 29.2695 41.8359 32.2773C41.8359 35.2852 42.3372 37.4401 43.3398 38.7422C44.3424 40.0312 45.9505 40.6758 48.1641 40.6758C50.1562 40.6758 51.6406 39.9531 52.6172 38.5078C53.5938 37.0495 54.082 34.9596 54.082 32.2383C54.082 29.4518 53.5938 27.375 52.6172 26.0078C51.6406 24.6406 50.1302 23.957 48.0859 23.957ZM81.6016 32.2773C81.6016 35.7669 80.7227 38.4948 78.9648 40.4609C77.207 42.4141 74.7786 43.3906 71.6797 43.3906C69.7656 43.3906 68.0664 42.9414 66.582 42.043C65.0977 41.1445 63.9518 39.8555 63.1445 38.1758C62.3372 36.4961 61.9336 34.5299 61.9336 32.2773C61.9336 28.7878 62.806 26.0729 64.5508 24.1328C66.2956 22.1797 68.7174 21.2031 71.8164 21.2031C74.8112 21.2031 77.1875 22.1992 78.9453 24.1914C80.7161 26.1836 81.6016 28.8789 81.6016 32.2773ZM65.293 32.2773C65.293 35.0117 65.8398 37.0951 66.9336 38.5273C68.0273 39.9596 69.6354 40.6758 71.7578 40.6758C73.8802 40.6758 75.4883 39.9661 76.582 38.5469C77.6888 37.1146 78.2422 35.0247 78.2422 32.2773C78.2422 29.556 77.6888 27.4922 76.582 26.0859C75.4883 24.6667 73.8672 23.957 71.7188 23.957C69.5964 23.957 67.9948 24.6536 66.9141 26.0469C65.8333 27.4401 65.293 29.5169 65.293 32.2773ZM105.781 32.2773C105.781 35.7669 104.902 38.4948 103.145 40.4609C101.387 42.4141 98.9583 43.3906 95.8594 43.3906C93.9453 43.3906 92.2461 42.9414 90.7617 42.043C89.2773 41.1445 88.1315 39.8555 87.3242 38.1758C86.5169 36.4961 86.1133 34.5299 86.1133 32.2773C86.1133 28.7878 86.9857 26.0729 88.7305 24.1328C90.4753 22.1797 92.8971 21.2031 95.9961 21.2031C98.9909 21.2031 101.367 22.1992 103.125 24.1914C104.896 26.1836 105.781 28.8789 105.781 32.2773ZM89.4727 32.2773C89.4727 35.0117 90.0195 37.0951 91.1133 38.5273C92.207 39.9596 93.8151 40.6758 95.9375 40.6758C98.0599 40.6758 99.668 39.9661 100.762 38.5469C101.868 37.1146 102.422 35.0247 102.422 32.2773C102.422 29.556 101.868 27.4922 100.762 26.0859C99.668 24.6667 98.0469 23.957 95.8984 23.957C93.776 23.957 92.1745 24.6536 91.0938 26.0469C90.013 27.4401 89.4727 29.5169 89.4727 32.2773ZM114.688 32.043C115.247 31.2487 116.1 30.207 117.246 28.918L124.16 21.5938H128.008L119.336 30.7148L128.613 43H124.688L117.129 32.8828L114.688 34.9922V43H111.484V12.6094H114.688V28.7227C114.688 29.4388 114.635 30.5456 114.531 32.043H114.688Z" fill="white"/>
</svg>
