<svg width="283" height="65" viewBox="0 0 283 65" fill="none" xmlns="http://www.w3.org/2000/svg">
<path d="M167.961 38.5312V51H158.703V16.7344H169.93C179.242 16.7344 183.898 20.1094 183.898 26.8594C183.898 30.8281 181.961 33.8984 178.086 36.0703L188.07 51H177.57L170.305 38.5312H167.961ZM167.961 31.5703H169.695C172.93 31.5703 174.547 30.1406 174.547 27.2812C174.547 24.9219 172.961 23.7422 169.789 23.7422H167.961V31.5703ZM211.531 51H191.188V16.7344H211.531V24.1641H200.445V29.5547H210.711V36.9844H200.445V43.4531H211.531V51ZM250.156 51H238.016L225.5 26.8594H225.289C225.586 30.6562 225.734 33.5547 225.734 35.5547V51H217.531V16.7344H229.625L242.094 40.5469H242.234C242.016 37.0938 241.906 34.3203 241.906 32.2266V16.7344H250.156V51ZM272.68 51H263.422V24.3047H255.055V16.7344H281.023V24.3047H272.68V51Z" fill="white"/>
<path d="M23.8125 51H4.71094V16.7344H23.8125V20.2734H8.69531V31.3125H22.8984V34.8281H8.69531V47.4375H23.8125V51ZM28.6875 39.9141V36.3516H40.1953V39.9141H28.6875ZM58.2656 24.8906C61.6406 24.8906 64.2578 26.0469 66.1172 28.3594C67.9922 30.6562 68.9297 33.9141 68.9297 38.1328C68.9297 42.3516 67.9844 45.6328 66.0938 47.9766C64.2188 50.3047 61.6094 51.4688 58.2656 51.4688C56.5938 51.4688 55.0625 51.1641 53.6719 50.5547C52.2969 49.9297 51.1406 48.9766 50.2031 47.6953H49.9219L49.1016 51H46.3125V14.5312H50.2031V23.3906C50.2031 25.375 50.1406 27.1562 50.0156 28.7344H50.2031C52.0156 26.1719 54.7031 24.8906 58.2656 24.8906ZM57.7031 28.1484C55.0469 28.1484 53.1328 28.9141 51.9609 30.4453C50.7891 31.9609 50.2031 34.5234 50.2031 38.1328C50.2031 41.7422 50.8047 44.3281 52.0078 45.8906C53.2109 47.4375 55.1406 48.2109 57.7969 48.2109C60.1875 48.2109 61.9688 47.3438 63.1406 45.6094C64.3125 43.8594 64.8984 41.3516 64.8984 38.0859C64.8984 34.7422 64.3125 32.25 63.1406 30.6094C61.9688 28.9688 60.1562 28.1484 57.7031 28.1484ZM97.9219 38.1328C97.9219 42.3203 96.8672 45.5938 94.7578 47.9531C92.6484 50.2969 89.7344 51.4688 86.0156 51.4688C83.7188 51.4688 81.6797 50.9297 79.8984 49.8516C78.1172 48.7734 76.7422 47.2266 75.7734 45.2109C74.8047 43.1953 74.3203 40.8359 74.3203 38.1328C74.3203 33.9453 75.3672 30.6875 77.4609 28.3594C79.5547 26.0156 82.4609 24.8438 86.1797 24.8438C89.7734 24.8438 92.625 26.0391 94.7344 28.4297C96.8594 30.8203 97.9219 34.0547 97.9219 38.1328ZM78.3516 38.1328C78.3516 41.4141 79.0078 43.9141 80.3203 45.6328C81.6328 47.3516 83.5625 48.2109 86.1094 48.2109C88.6562 48.2109 90.5859 47.3594 91.8984 45.6562C93.2266 43.9375 93.8906 41.4297 93.8906 38.1328C93.8906 34.8672 93.2266 32.3906 91.8984 30.7031C90.5859 29 88.6406 28.1484 86.0625 28.1484C83.5156 28.1484 81.5938 28.9844 80.2969 30.6562C79 32.3281 78.3516 34.8203 78.3516 38.1328ZM126.938 38.1328C126.938 42.3203 125.883 45.5938 123.773 47.9531C121.664 50.2969 118.75 51.4688 115.031 51.4688C112.734 51.4688 110.695 50.9297 108.914 49.8516C107.133 48.7734 105.758 47.2266 104.789 45.2109C103.82 43.1953 103.336 40.8359 103.336 38.1328C103.336 33.9453 104.383 30.6875 106.477 28.3594C108.57 26.0156 111.477 24.8438 115.195 24.8438C118.789 24.8438 121.641 26.0391 123.75 28.4297C125.875 30.8203 126.938 34.0547 126.938 38.1328ZM107.367 38.1328C107.367 41.4141 108.023 43.9141 109.336 45.6328C110.648 47.3516 112.578 48.2109 115.125 48.2109C117.672 48.2109 119.602 47.3594 120.914 45.6562C122.242 43.9375 122.906 41.4297 122.906 38.1328C122.906 34.8672 122.242 32.3906 120.914 30.7031C119.602 29 117.656 28.1484 115.078 28.1484C112.531 28.1484 110.609 28.9844 109.312 30.6562C108.016 32.3281 107.367 34.8203 107.367 38.1328ZM137.625 37.8516C138.297 36.8984 139.32 35.6484 140.695 34.1016L148.992 25.3125H153.609L143.203 36.2578L154.336 51H149.625L140.555 38.8594L137.625 41.3906V51H133.781V14.5312H137.625V33.8672C137.625 34.7266 137.562 36.0547 137.438 37.8516H137.625Z" fill="white"/>
</svg>
